HIERARCHY
ROOT Hips
{
	OFFSET 0.00000 0.00000 0.00000
	CHANNELS 6 Xposition Yposition Zposition Zrotation Yrotation Xrotation 
	JOINT LHipJoint
	{
		OFFSET 0 0 0
		CHANNELS 3 Zrotation Yrotation Xrotation
		JOINT LeftHip
		{
			OFFSET 1.73240 -1.89999 0.57994
			CHANNELS 3 Zrotation Yrotation Xrotation
			JOINT LeftKnee
			{
				OFFSET 2.43106 -6.67930 0.00000
				CHANNELS 3 Zrotation Yrotation Xrotation
				JOINT LeftAnkle
				{
					OFFSET 2.78854 -7.66147 0.00000
					CHANNELS 3 Zrotation Yrotation Xrotation
					JOINT LeftToe
					{
						OFFSET 0.17314 -0.47571 2.01064
						CHANNELS 3 Zrotation Yrotation Xrotation
						End Site
						{
							OFFSET 0.00000 -0.00000 1.04147
						}
					}
				}
			}
		}
	}
	JOINT RHipJoint
	{
		OFFSET 0 0 0
		CHANNELS 3 Zrotation Yrotation Xrotation
		JOINT RightHip
		{
			OFFSET -1.57078 -1.89998 0.57994
			CHANNELS 3 Zrotation Yrotation Xrotation
			JOINT RightKnee
			{
				OFFSET -2.50166 -6.87326 0.00000
				CHANNELS 3 Zrotation Yrotation Xrotation
				JOINT RightAnkle
				{
					OFFSET -2.77304 -7.61886 0.00000
					CHANNELS 3 Zrotation Yrotation Xrotation
					JOINT RightToe
					{
						OFFSET -0.23513 -0.64602 2.11039
						CHANNELS 3 Zrotation Yrotation Xrotation
						End Site
						{
							OFFSET -0.00000 -0.00000 1.10597
						}
					}
				}
			}
		}
	}
	JOINT lowerback
	{
		OFFSET 0 0 0
		CHANNELS 3 Zrotation Yrotation Xrotation
		JOINT Chest
		{
			OFFSET -0.00908 2.00015 -0.35323
			CHANNELS 3 Zrotation Yrotation Xrotation
			JOINT Chest2
			{
				OFFSET 0.05647 2.02258 0.04270
				CHANNELS 3 Zrotation Yrotation Xrotation
				JOINT lowerneck
				{
					OFFSET 0 0 0
					CHANNELS 3 Zrotation Yrotation Xrotation
					JOINT Neck
					{
						OFFSET -0.02074 1.73711 0.13117
						CHANNELS 3 Zrotation Yrotation Xrotation
						JOINT Head
						{
							OFFSET -0.02359 1.73615 -0.24320
							CHANNELS 3 Zrotation Yrotation Xrotation
							End Site
							{
								OFFSET -0.00579 1.75982 -0.09688
							}
						}
					}
				}
				JOINT LeftCollar
				{
					OFFSET 0 0 0
					CHANNELS 3 Zrotation Yrotation Xrotation
					JOINT LeftShoulder
					{
						OFFSET 3.20537 1.11432 -0.27680
CHANNELS 3 Zrotation Xrotation Yrotation
						JOINT LeftElbow
						{
OFFSET 0 -5.059230 -0.000000
CHANNELS 3 Zrotation Xrotation Yrotation
							JOINT LeftWrist
							{
OFFSET 0 -3.519960 0.000000
CHANNELS 3 Zrotation Xrotation Yrotation
								JOINT lhand
								{
									OFFSET 0 0 0
CHANNELS 3 Zrotation Xrotation Yrotation
									JOINT LFingers
									{
OFFSET 0 -0.652380 0.000000
CHANNELS 3 Zrotation Xrotation Yrotation
										End Site
										{
OFFSET 0 -0.525960 0.000000
										}
									}
								}
								JOINT LThumb
								{
OFFSET 0 0.000000 0.000000
CHANNELS 3 Zrotation Xrotation Yrotation
									End Site
									{
OFFSET 0 -0.533990 0.533990
									}
								}
							}
						}
					}
				}
				JOINT RightCollar
				{
					OFFSET 0 0 0
					CHANNELS 3 Zrotation Yrotation Xrotation
					JOINT RightShoulder
					{
						OFFSET -2.96983 1.42602 -0.37449
CHANNELS 3 Zrotation Xrotation Yrotation
						JOINT RightElbow
						{
OFFSET 0 -5.408670 0.000000
CHANNELS 3 Zrotation Xrotation Yrotation
							JOINT RightWrist
							{
OFFSET 0 -3.129640 0.000000
CHANNELS 3 Zrotation Xrotation Yrotation
								JOINT rhand
								{
									OFFSET 0 0 0
CHANNELS 3 Zrotation Xrotation Yrotation
									JOINT RFingers
									{
OFFSET 0 -0.832710 0.000000
CHANNELS 3 Zrotation Xrotation Yrotation
										End Site
										{
OFFSET 0 -0.671350 0.000000
										}
									}
								}
								JOINT RThumb
								{
OFFSET 0 0.000000 0.000000
CHANNELS 3 Zrotation Xrotation Yrotation
									End Site
									{
OFFSET 0 -0.681600 0.681600
									}
								}
							}
						}
					}
				}
			}
		}
	}
}
MOTION
Frames: 7
Frame Time: 0.008333333333333333
0.853143 16.264433 -3.205438 -359.458289 -11.449092 -11.219124 0.000000 0.000000 0.000000 -12.008747 -10.981789 -27.593880 12.320194 18.520034 66.997476 0.348108 -5.834460 -10.646441 2.649314 -10.103483 -29.313457 0.000000 0.000000 0.000000 6.148980 15.903066 -32.229650 -12.245704 -18.490816 66.763557 -0.176145 -5.224736 -11.568971 -0.024489 0.728272 -2.004193 0.361383 -1.311740 35.771163 4.392846 -1.403398 12.856495 4.900460 -0.928262 -3.745277 2.126234 7.059097 -4.020902 -16.534739 12.058512 16.473320 -4.765420 4.813369 6.843170 0.000000 0.000000 0.000000 -2.931967 32.133829 -21.462490 21.398984 -32.290546 6.261970 -9.628257 156.558345 -48.900611 0.000000 0.000000 0.000000 -7.125000 0.000000 0.000000 14.039451 -12.965385 169.129464 0.000000 0.000000 0.000000 0.603215 34.934611 -13.834747 -20.867926 -31.669998 -5.982248 -1.189689 -27.521161 -3.308696 0.000000 0.000000 0.000000 7.125000 0.000000 0.000000 19.094560 26.520926 9.037797
0.324415 15.613607 -1.741745 -367.886496 2.546935 -10.835677 0.000000 0.000000 0.000000 -1.513779 -14.536138 -48.247297 20.441254 19.994977 91.290241 0.272366 -0.759127 10.190481 1.226958 -7.023713 -19.786278 0.000000 0.000000 0.000000 11.674044 14.029302 -25.374185 -11.814009 -18.310914 65.398115 -1.056432 -0.330278 -19.491852 -0.808840 5.736915 -16.023708 5.187776 -3.321920 39.442108 7.341045 -1.523195 13.139036 5.682021 -0.902502 -4.454535 2.347763 7.454525 -5.086264 -15.699922 12.344105 15.259986 -4.444603 5.061629 6.633006 0.000000 0.000000 0.000000 -0.528180 27.398921 -17.106086 24.515010 -35.703111 8.005576 -11.372830 155.390239 -46.576815 0.000000 0.000000 0.000000 -7.125000 0.000000 0.000000 13.140411 -14.756473 170.381264 0.000000 0.000000 0.000000 6.281601 24.120081 -6.748800 -11.865901 -19.601719 -2.058157 4.734033 -17.689319 -3.691469 0.000000 0.000000 0.000000 7.125000 0.000000 0.000000 23.252619 26.038181 11.614707
-0.029338 14.899666 -0.196362 -371.733666 11.247675 -12.420543 0.000000 0.000000 0.000000 -3.437740 -9.596344 -59.681972 17.431261 19.835016 82.468278 0.058937 0.339994 -4.707224 0.569362 -4.828179 -13.420063 0.000000 0.000000 0.000000 16.997719 3.321632 -21.983455 -13.890279 -19.080286 71.868930 -2.874305 -4.627110 -33.900445 -0.613739 5.013868 -13.948130 6.344641 -1.872067 43.347839 7.859025 1.315876 13.611480 4.639438 0.520584 -5.215463 2.560212 7.635886 -6.391314 -16.701280 12.913071 15.627405 -4.699180 5.213308 7.134601 0.000000 0.000000 0.000000 2.006747 19.875435 -4.069788 29.727520 -40.652749 11.233823 -12.158074 154.458357 -45.304358 0.000000 0.000000 0.000000 -7.125000 0.000000 0.000000 12.705348 -15.766713 171.005126 0.000000 0.000000 0.000000 4.255289 14.625881 13.106216 -11.785163 -19.481087 -2.030512 5.031569 7.244943 -6.997140 0.000000 0.000000 0.000000 7.125000 0.000000 0.000000 22.845590 22.977263 13.162337
0.218255 14.611951 1.426317 -374.496748 17.076643 -10.480580 0.000000 0.000000 0.000000 1.180813 -15.909034 -62.185865 9.992131 17.400532 59.455411 -0.002150 2.504515 -3.399690 0.012257 -0.709028 -1.948626 0.000000 0.000000 0.000000 18.596257 -6.060708 -19.706417 -13.877781 -19.076319 71.830668 -4.196864 -4.432080 -40.437287 -0.992453 6.338931 -17.771496 7.583279 0.307176 43.488301 7.623301 4.552548 13.828894 2.477854 2.166345 -5.007793 1.613339 7.181695 -7.702900 -15.332858 12.217545 15.503374 -4.115853 4.882653 7.108028 0.000000 0.000000 0.000000 2.148157 11.824501 1.158164 39.973274 -48.041002 18.423382 -22.553344 145.405391 -48.045633 0.000000 0.000000 0.000000 -7.125000 0.000000 0.000000 8.105644 -10.478618 173.438615 0.000000 0.000000 0.000000 -9.354211 7.592864 19.467899 -15.531108 -24.879733 -3.446903 -9.380383 7.980026 -6.121782 0.000000 0.000000 0.000000 7.125000 0.000000 0.000000 12.775334 23.793983 6.706927
0.990873 14.599525 3.326107 -377.827356 19.634302 -9.281185 0.000000 0.000000 0.000000 12.973313 -21.130598 -60.956499 5.963493 14.392148 44.833608 -0.158374 7.056783 -1.969293 0.048651 1.422179 3.911291 0.000000 0.000000 0.000000 20.963581 -12.405137 -10.227576 -10.933538 -17.901612 62.564489 -4.624743 -5.220799 -42.657555 -2.357395 9.573893 -27.607550 7.725950 2.713792 42.142760 6.710314 7.357686 13.248391 0.354609 3.551116 -5.148232 1.604822 7.923654 -8.943718 -12.989898 13.067418 17.047424 -3.214545 5.315103 7.736805 0.000000 0.000000 0.000000 2.533869 10.600153 4.668372 55.577912 -55.007396 30.689951 -26.733123 143.745936 -46.671151 0.000000 0.000000 0.000000 -7.125000 0.000000 0.000000 5.952781 -10.536431 175.210200 0.000000 0.000000 0.000000 -24.181309 5.117893 14.816414 -20.391124 -31.109560 -5.732561 -21.153273 7.738790 -5.410684 0.000000 0.000000 0.000000 7.125000 0.000000 0.000000 4.123400 24.181622 2.076126
2.012560 14.611695 5.711918 -382.321414 26.436636 -8.623435 0.000000 0.000000 0.000000 14.318186 -18.760729 -65.462482 6.625244 15.007168 47.440928 -1.398725 23.938777 4.594926 1.142962 6.781744 19.072927 0.000000 0.000000 0.000000 22.721898 -17.376893 -3.904521 -10.298066 -17.573999 60.480036 -1.511434 -1.900481 -23.964816 -2.026879 8.921331 -25.549888 7.085269 4.417621 39.107534 5.130839 8.991044 11.040659 -1.608396 4.313003 -6.466441 3.421745 7.795694 -8.974316 -8.929259 11.792062 17.129060 -2.333813 5.130039 7.486380 0.000000 0.000000 0.000000 9.067617 8.342246 11.093788 66.109575 -57.729574 39.468015 -31.800817 134.874062 -50.529288 0.000000 0.000000 0.000000 -7.125000 0.000000 0.000000 4.790339 -5.295465 175.656508 0.000000 0.000000 0.000000 -28.163163 10.031465 18.018701 -25.122916 -36.329147 -8.362730 -30.284883 -1.896718 -10.096590 0.000000 0.000000 0.000000 7.125000 0.000000 0.000000 -2.303863 18.333711 -1.463403
2.931523 14.629104 8.087680 -385.413860 38.038271 -12.517639 0.000000 0.000000 0.000000 7.616211 -16.956714 -71.879349 12.299876 18.513918 66.935658 -0.077991 6.249160 1.811182 0.029175 -0.323736 -0.893053 0.000000 0.000000 0.000000 23.293889 -14.742436 -3.789419 -13.967135 -19.100595 72.101189 0.036648 5.554106 6.607595 -0.508822 4.556337 -12.650012 4.391720 4.640183 42.873768 4.150517 8.566461 10.091986 -1.439837 4.026753 -8.922557 3.331249 7.187628 -9.848423 -5.859483 10.235346 15.411420 -1.492820 4.647547 6.800598 0.000000 0.000000 0.000000 21.485680 -1.631805 12.632180 63.517302 -57.176563 37.282674 -23.908331 134.943830 -55.563279 0.000000 0.000000 0.000000 -7.125000 0.000000 0.000000 9.065050 -3.179854 171.341200 0.000000 0.000000 0.000000 -22.862543 14.774104 14.402894 -29.787467 -40.710297 -11.270890 -28.922948 -9.501309 -8.772685 0.000000 0.000000 0.000000 7.125000 0.000000 0.000000 -1.444636 19.982235 -0.864269
